# xmcd
#
# Track frame offsets: 
#        187
#        11542
#        22277
#        30577
#        38862
#        49552
#        58062
#        70497
#        82115
#        92907
#        103515
#        114040
#        126932
#        137795
#        150480
#        161205
#        174775
#        186500
#        199090
#        209645
#        218000
#        228900
#        241160
#        253880
#
# Disc length: 3518 seconds
#
# Revision: 0
# Processed by: cddbd v1.5.1PL0 Copyright (c) Steve Scherf et al.
# Submitted via: ExactAudioCopy v0.95a5
#
DISCID=540dbc18
DTITLE=Various Artist - 30 Years of No. 1 Country Hits Disc 2
DYEAR=1990
DGENRE=Country
TTITLE0=Oh, Lonesome Me
TTITLE1=Gone
TTITLE2=(Let Me Be Your) Teddy Bear
TTITLE3=Guess Things Happen That Way
TTITLE4=Bye Bye Love
TTITLE5=Great Balls Of Fire
TTITLE6=White Lightning
TTITLE7=Country Girl
TTITLE8=Please Help Me I'm Falling (In Love With You)
TTITLE9=He'll Have To Go
TTITLE10=Wings Of A Dove
TTITLE11=The Three Bells
TTITLE12=Hello Walls
TTITLE13=I Fall To Pieces
TTITLE14=Walk On By
TTITLE15=She's Got You
TTITLE16=She Thinks I Still Care
TTITLE17=I've Been Everywhere
TTITLE18=Once A Day
TTITLE19=Dang Me
TTITLE20=I Guess I'm Crazy
TTITLE21=Lonesome 7-7203
TTITLE22=Still
TTITLE23=Abilene
EXTD=
EXTT0=
EXTT1=
EXTT2=
EXTT3=
EXTT4=
EXTT5=
EXTT6=
EXTT7=
EXTT8=
EXTT9=
EXTT10=
EXTT11=
EXTT12=
EXTT13=
EXTT14=
EXTT15=
EXTT16=
EXTT17=
EXTT18=
EXTT19=
EXTT20=
EXTT21=
EXTT22=
EXTT23=
PLAYORDER=
